<?xml version="1.0" encoding="UTF-8" standalone="no"?>
<!-- Generator: Adobe Illustrator 19.0.0, SVG Export Plug-In . SVG Version: 6.00 Build 0)  -->

<svg
   xmlns:dc="http://purl.org/dc/elements/1.1/"
   xmlns:cc="http://creativecommons.org/ns#"
   xmlns:rdf="http://www.w3.org/1999/02/22-rdf-syntax-ns#"
   xmlns:svg="http://www.w3.org/2000/svg"
   xmlns="http://www.w3.org/2000/svg"
   xmlns:sodipodi="http://sodipodi.sourceforge.net/DTD/sodipodi-0.dtd"
   xmlns:inkscape="http://www.inkscape.org/namespaces/inkscape"
   version="1.1"
   id="Capa_1"
   x="0px"
   y="0px"
   viewBox="0 0 512 512"
   style="enable-background:new 0 0 512 512;"
   xml:space="preserve"
   width="512"
   height="512"
   sodipodi:docname="compass.svg"
   inkscape:version="0.92.4 5da689c313, 2019-01-14"><metadata
   id="metadata1500"><rdf:RDF><cc:Work
       rdf:about=""><dc:format>image/svg+xml</dc:format><dc:type
         rdf:resource="http://purl.org/dc/dcmitype/StillImage" /><dc:title /></cc:Work></rdf:RDF></metadata><defs
   id="defs1498" /><sodipodi:namedview
   pagecolor="#000000"
   bordercolor="#666666"
   borderopacity="1"
   objecttolerance="10"
   gridtolerance="10"
   guidetolerance="10"
   inkscape:pageopacity="0"
   inkscape:pageshadow="2"
   inkscape:window-width="1920"
   inkscape:window-height="1006"
   id="namedview1496"
   showgrid="false"
   inkscape:zoom="0.921875"
   inkscape:cx="-38.28303"
   inkscape:cy="272.31354"
   inkscape:window-x="0"
   inkscape:window-y="0"
   inkscape:window-maximized="1"
   inkscape:current-layer="Capa_1" />
<g
   id="g1493"
   style="fill:#ffffff;fill-opacity:1;stroke:#6f00a6;stroke-width:3;stroke-miterlimit:4;stroke-dasharray:none;stroke-opacity:1"
   transform="rotate(90,256,256)">
	<path
   d="m 178.54,173.114 c 2.193,2.203 5.519,2.825 8.361,1.563 L 256,143.966 l 69.099,30.71 c 0.979,0.436 2.016,0.647 3.044,0.646 1.956,0 3.88,-0.765 5.317,-2.209 2.194,-2.204 2.8,-5.533 1.524,-8.369 L 262.839,4.422 C 261.628,1.731 258.951,0 256,0 c -2.951,0 -5.628,1.731 -6.839,4.422 l -72.145,160.323 c -1.277,2.836 -0.67,6.165 1.524,8.369 z m 84.96,-42.23 V 42.443 l 49.748,110.552 z m -15,-88.441 v 88.441 l -49.748,22.11 z"
   id="path1483"
   style="fill:#ffffff;fill-opacity:1;stroke:#6f00a6;stroke-width:3;stroke-miterlimit:4;stroke-dasharray:none;stroke-opacity:1"
   inkscape:connector-curvature="0" />
	
	<path
   d="m 312.583,54.815 c 79.108,22.202 138.016,89.018 150.075,170.222 0.553,3.724 3.754,6.399 7.409,6.399 0.366,0 0.738,-0.027 1.111,-0.083 4.097,-0.608 6.926,-4.423 6.317,-8.52 C 464.569,135.79 401.428,64.17 316.636,40.373 c -3.986,-1.117 -8.128,1.207 -9.248,5.195 -1.119,3.987 1.207,8.127 5.195,9.247 z"
   id="path1487"
   style="fill:#ffffff;fill-opacity:1;stroke:#6f00a6;stroke-width:3;stroke-miterlimit:4;stroke-dasharray:none;stroke-opacity:1"
   inkscape:connector-curvature="0" />
	<path
   d="m 55.597,263.5 c 4.142,0 7.5,-3.358 7.5,-7.5 0,-4.142 -3.358,-7.5 -7.5,-7.5 h -8.389 c 3.266,-91.318 65.918,-170.602 154.619,-194.346 4.001,-1.071 6.376,-5.183 5.306,-9.185 -1.071,-4.002 -5.185,-6.377 -9.185,-5.306 C 102.699,65.162 35.475,150.402 32.201,248.5 H 7.5 c -4.142,0 -7.5,3.358 -7.5,7.5 0,4.142 3.358,7.5 7.5,7.5 z"
   id="path1489"
   style="fill:#ffffff;fill-opacity:1;stroke:#6f00a6;stroke-width:3;stroke-miterlimit:4;stroke-dasharray:none;stroke-opacity:1"
   inkscape:connector-curvature="0" />
	<path
   d="m 504.5,248.5 h -48.097 c -4.142,0 -7.5,3.358 -7.5,7.5 0,4.142 3.358,7.5 7.5,7.5 h 8.383 C 460.91,372.755 372.755,460.911 263.5,464.786 v -8.383 c 0,-4.142 -3.358,-7.5 -7.5,-7.5 -4.142,0 -7.5,3.358 -7.5,7.5 v 8.385 C 200.792,463.077 155.044,445.102 118.954,413.714 81.345,381.005 56.623,335.99 49.342,286.963 c -0.608,-4.097 -4.426,-6.93 -8.52,-6.317 -4.097,0.608 -6.925,4.423 -6.317,8.52 7.806,52.561 34.301,100.813 74.605,135.866 38.82,33.763 88.063,53.047 139.39,54.764 V 504.5 c 0,4.142 3.358,7.5 7.5,7.5 4.142,0 7.5,-3.358 7.5,-7.5 v -24.702 c 57.003,-1.864 110.324,-24.929 150.846,-65.452 40.523,-40.522 63.588,-93.843 65.452,-150.846 H 504.5 c 4.142,0 7.5,-3.358 7.5,-7.5 0,-4.142 -3.358,-7.5 -7.5,-7.5 z"
   id="path1491"
   style="fill:#ffffff;fill-opacity:1;stroke:#6f00a6;stroke-width:3;stroke-miterlimit:4;stroke-dasharray:none;stroke-opacity:1"
   inkscape:connector-curvature="0" />
</g>















</svg>