<?xml version="1.0" encoding="UTF-8" standalone="no"?>
<svg
   xmlns:dc="http://purl.org/dc/elements/1.1/"
   xmlns:cc="http://creativecommons.org/ns#"
   xmlns:rdf="http://www.w3.org/1999/02/22-rdf-syntax-ns#"
   xmlns:svg="http://www.w3.org/2000/svg"
   xmlns="http://www.w3.org/2000/svg"
   xmlns:sodipodi="http://sodipodi.sourceforge.net/DTD/sodipodi-0.dtd"
   xmlns:inkscape="http://www.inkscape.org/namespaces/inkscape"
   version="1.0"
   width="1161.1285pt"
   height="1047.25pt"
   viewBox="0 0 1161.1285 1047.25"
   preserveAspectRatio="xMidYMid meet"
   id="svg14"
   sodipodi:docname="compass.svg"
   inkscape:version="0.92.4 5da689c313, 2019-01-14">
  <metadata
     id="metadata20">
    <rdf:RDF>
      <cc:Work
         rdf:about="">
        <dc:format>image/svg+xml</dc:format>
        <dc:type
           rdf:resource="http://purl.org/dc/dcmitype/StillImage" />
        <dc:title></dc:title>
      </cc:Work>
    </rdf:RDF>
  </metadata>
  <defs
     id="defs18" />
  <sodipodi:namedview
     pagecolor="#000000"
     bordercolor="#666666"
     borderopacity="1"
     objecttolerance="10"
     gridtolerance="10"
     guidetolerance="10"
     inkscape:pageopacity="0"
     inkscape:pageshadow="2"
     inkscape:window-width="1920"
     inkscape:window-height="1006"
     id="namedview16"
     showgrid="false"
     inkscape:zoom="0.39544361"
     inkscape:cx="825.89038"
     inkscape:cy="703.94383"
     inkscape:window-x="0"
     inkscape:window-y="0"
     inkscape:window-maximized="1"
     inkscape:current-layer="svg14"
     inkscape:pagecheckerboard="false"
     fit-margin-top="0"
     fit-margin-left="0"
     fit-margin-right="0"
     fit-margin-bottom="0" />
  <g
     transform="matrix(0,0.1,0.1,0,-105.99646,-132.875)"
     id="g12"
     style="fill:#ffffff;fill-opacity:0.85;stroke:#ffffe2;stroke-width:22.5;stroke-miterlimit:4;stroke-dasharray:none;stroke-opacity:1">
    <path
       d="m 6200,12642 c 0,-12 11,-21 32,-27 50,-15 58,-42 58,-195 0,-255 -25,-392 -80,-445 -16,-15 -27,-32 -24,-37 6,-9 237,-11 247,-1 4,3 -8,21 -27,39 -55,54 -70,131 -71,363 0,131 4,195 11,198 6,2 113,-141 238,-317 125,-176 234,-320 242,-320 12,0 14,34 14,199 0,331 22,466 84,506 14,10 26,26 26,36 0,18 -9,19 -130,19 -147,0 -153,-4 -96,-62 19,-20 40,-54 46,-77 26,-98 41,-369 21,-400 -10,-15 -29,9 -261,337 l -143,202 h -94 c -83,0 -93,-2 -93,-18 z"
       id="path2"
       style="fill:#ffffff;fill-opacity:0.85;stroke:#ffffe2;stroke-width:22.5;stroke-miterlimit:4;stroke-dasharray:none;stroke-opacity:1"
       inkscape:connector-curvature="0" />
    <path
       d="m 6540,11524 c 0,-7 -25,-130 -220,-1064 -83,-399 -178,-853 -210,-1010 -145,-699 -360,-1737 -365,-1757 -3,-13 -11,-23 -19,-23 -7,0 -330,208 -717,462 -387,254 -713,462 -724,462 -11,1 -19,-4 -18,-10 1,-5 189,-296 419,-645 538,-819 519,-788 507,-800 -5,-5 -432,-97 -949,-204 -516,-108 -1144,-238 -1394,-290 -250,-52 -684,-142 -965,-200 -280,-58 -518,-108 -527,-111 -11,-3 -18,-15 -18,-29 0,-14 7,-26 18,-29 9,-3 267,-57 572,-120 2401,-498 3255,-677 3263,-685 6,-6 -158,-265 -458,-723 -258,-392 -470,-721 -473,-732 -4,-15 -1,-18 15,-14 11,3 334,211 719,464 384,252 708,458 718,458 22,1 -7,132 326,-1469 101,-484 253,-1217 339,-1630 l 156,-750 27,-3 c 24,-3 27,1 38,50 14,67 315,1516 610,2933 72,347 142,683 155,748 14,64 25,120 25,123 0,22 122,-53 748,-464 387,-254 707,-462 712,-462 5,0 11,4 14,9 4,5 -206,332 -465,727 -409,622 -469,719 -455,729 9,7 84,26 168,43 84,17 434,89 778,161 344,71 1114,231 1711,355 597,124 1109,231 1137,237 45,9 52,14 52,34 0,13 -3,26 -7,28 -5,3 -282,62 -618,132 -335,69 -1064,221 -1620,336 -555,116 -1144,238 -1307,271 -163,34 -299,66 -301,73 -3,6 208,335 468,730 332,505 470,724 463,732 -11,13 50,52 -833,-527 -330,-216 -607,-395 -616,-397 -21,-6 -15,-29 -93,347 -36,173 -124,599 -196,945 -72,347 -189,911 -261,1255 -71,344 -161,775 -199,959 -39,183 -70,337 -70,342 0,5 -13,9 -30,9 -16,0 -30,-3 -30,-6 z m -8,-5126 c -4,-4 -193,178 -420,405 l -413,413 81,390 c 45,214 128,614 185,889 57,275 174,838 260,1250 86,413 185,892 221,1065 36,173 70,326 77,340 9,20 13,-483 15,-2359 1,-1312 -1,-2388 -6,-2393 z m 2158,2050 c 0,-16 -1171,-1188 -1187,-1188 -6,0 -14,3 -16,8 -11,16 -76,343 -72,354 6,15 1255,838 1272,838 1,0 3,-6 3,-12 z M 5022,7833 c 327,-327 587,-594 586,-602 -2,-10 -50,-24 -163,-48 -88,-18 -171,-33 -185,-33 -22,0 -52,41 -237,323 -116,177 -301,460 -412,628 -111,168 -201,309 -201,313 0,3 5,6 11,6 7,0 277,-264 601,-587 z m 3280,-837 c 769,-160 1552,-323 2602,-541 280,-58 513,-108 518,-111 6,-4 5,-10 -3,-15 -22,-14 -4756,-11 -4765,2 -10,17 805,829 833,829 13,0 379,-74 815,-164 z M 6476,6269 c 8,-14 -804,-829 -825,-829 -8,0 -341,68 -741,151 -399,83 -1179,245 -1735,360 -555,115 -1098,228 -1205,250 -256,53 -277,58 -259,70 22,14 4756,12 4765,-2 z m 557,-476 c 218,-219 397,-404 397,-411 0,-6 -92,-456 -205,-999 C 7112,3839 6983,3220 6938,3005 6651,1624 6613,1446 6602,1442 c -9,-3 -12,537 -12,2376 0,1308 3,2382 6,2385 4,3 14,2 23,-3 9,-5 195,-188 414,-407 z m 915,-420 c 103,-154 751,-1142 762,-1164 7,-11 9,-24 5,-27 -8,-8 -1196,1180 -1192,1193 3,8 310,81 354,84 7,1 39,-38 71,-86 z m -2298,-38 c 0,-2 16,-79 35,-171 19,-91 35,-172 35,-179 0,-11 -1180,-793 -1257,-834 -18,-9 -23,-9 -23,1 -1,19 1175,1188 1194,1188 9,0 16,-2 16,-5 z"
       id="path4"
       style="fill:#ffffff;fill-opacity:0.85;stroke:#ffffe2;stroke-width:22.5;stroke-miterlimit:4;stroke-dasharray:none;stroke-opacity:1"
       inkscape:connector-curvature="0" />
  </g>
</svg>
