<?xml version="1.0" encoding="UTF-8" standalone="no"?>
<svg
   xmlns:dc="http://purl.org/dc/elements/1.1/"
   xmlns:cc="http://creativecommons.org/ns#"
   xmlns:rdf="http://www.w3.org/1999/02/22-rdf-syntax-ns#"
   xmlns:svg="http://www.w3.org/2000/svg"
   xmlns="http://www.w3.org/2000/svg"
   xmlns:sodipodi="http://sodipodi.sourceforge.net/DTD/sodipodi-0.dtd"
   xmlns:inkscape="http://www.inkscape.org/namespaces/inkscape"
   viewBox="0 0 350 350"
   version="1.1"
   id="svg8"
   sodipodi:docname="ore.svg"
   width="350"
   height="350"
   inkscape:version="0.92.4 5da689c313, 2019-01-14">
  <metadata
     id="metadata14">
    <rdf:RDF>
      <cc:Work
         rdf:about="">
        <dc:format>image/svg+xml</dc:format>
        <dc:type
           rdf:resource="http://purl.org/dc/dcmitype/StillImage" />
        <dc:title />
      </cc:Work>
    </rdf:RDF>
  </metadata>
  <defs
     id="defs12" />
  <sodipodi:namedview
     pagecolor="#000000"
     bordercolor="#666666"
     borderopacity="1"
     objecttolerance="10"
     gridtolerance="10"
     guidetolerance="10"
     inkscape:pageopacity="0"
     inkscape:pageshadow="2"
     inkscape:window-width="1920"
     inkscape:window-height="1006"
     id="namedview10"
     showgrid="false"
     fit-margin-top="0"
     fit-margin-left="0"
     fit-margin-right="0"
     fit-margin-bottom="0"
     inkscape:zoom="1.4142136"
     inkscape:cx="94.387616"
     inkscape:cy="198.8335"
     inkscape:window-x="0"
     inkscape:window-y="0"
     inkscape:window-maximized="1"
     inkscape:current-layer="svg8"
     inkscape:pagecheckerboard="true" />
  <path
     style="fill-opacity:1;stroke:none;stroke-width:0.878066"
     d="M 243.16048,349.99758 131.18623,348.36405 27.570843,224.89721 41.284139,183.45132 74.971751,191.02171 113.32217,224.94564 96.635988,176.62264 119.40646,148.08596 78.569402,64.12237 119.80482,0 l 69.19602,18.13344 44.19206,64.93752 -28.15643,4.03539 -36.75794,-28.26146 21.55915,38.79141 -0.64196,30.15568 -24.92371,14.70819 33.38765,1.03629 45.0375,19.23672 27.4648,-22.49651 36.7675,15.38048 10.17105,30.3284 -18.122,-11.12477 -74.67178,32.2565 -42.97215,-12.42094 5.59804,-21.91459 -40.85425,2.64238 22.51923,9.61471 -9.06578,18.51679 55.44261,25.24945 19.43075,64.10058 -14.75935,28.02983 28.08288,-16.43211 63.84254,-7.6172 L 243.16239,350 Z"
     id="path1042"
     inkscape:connector-curvature="0" />
  <path
     style="fill-opacity:1;stroke:none;stroke-width:0.878066"
     d="M 250.49621,290.4465 229.89522,222.46791 298.71676,190.99992 350,238.87742 332.16937,281.03113 Z"
     id="path1036"
     inkscape:connector-curvature="0" />
  <path
     style="fill-opacity:1;stroke:none;stroke-width:0.878066"
     d="M 75.880239,178.20047 19.390629,165.60036 0,109.78283 63.110777,79.55774 l 35.28869,67.89628 -22.519228,30.74725 z"
     id="path1034"
     inkscape:connector-curvature="0" />
  <path
     style="fill-opacity:1;stroke:none;stroke-width:0.878066"
     d="m 240.29268,146.74701 -36.6691,-15.86715 1.50364,-31.36306 41.65766,-8.00381 25.55707,31.71495 -32.04736,23.51826 z"
     id="path1032"
     inkscape:connector-curvature="0" />
</svg>
