<?xml version="1.0" encoding="UTF-8" standalone="no"?>
<!-- Created with Inkscape (http://www.inkscape.org/) -->

<svg
   xmlns:dc="http://purl.org/dc/elements/1.1/"
   xmlns:cc="http://creativecommons.org/ns#"
   xmlns:rdf="http://www.w3.org/1999/02/22-rdf-syntax-ns#"
   xmlns:svg="http://www.w3.org/2000/svg"
   xmlns="http://www.w3.org/2000/svg"
   xmlns:sodipodi="http://sodipodi.sourceforge.net/DTD/sodipodi-0.dtd"
   xmlns:inkscape="http://www.inkscape.org/namespaces/inkscape"
   width="171.65707mm"
   height="171.65688mm"
   viewBox="0 0 171.65707 171.65688"
   version="1.1"
   id="svg8"
   sodipodi:docname="station.svg"
   inkscape:version="0.92.4 5da689c313, 2019-01-14">
  <defs
     id="defs2" />
  <sodipodi:namedview
     id="base"
     pagecolor="#000000"
     bordercolor="#666666"
     borderopacity="1.0"
     inkscape:pageopacity="0"
     inkscape:pageshadow="2"
     inkscape:zoom="0.58"
     inkscape:cx="205.37267"
     inkscape:cy="431.41879"
     inkscape:document-units="mm"
     inkscape:current-layer="layer1"
     showgrid="true"
     inkscape:window-width="1920"
     inkscape:window-height="1006"
     inkscape:window-x="0"
     inkscape:window-y="0"
     inkscape:window-maximized="1"
     showguides="true"
     inkscape:pagecheckerboard="true"
     fit-margin-top="0"
     fit-margin-left="0"
     fit-margin-right="0"
     fit-margin-bottom="0" />
  <metadata
     id="metadata5">
    <rdf:RDF>
      <cc:Work
         rdf:about="">
        <dc:format>image/svg+xml</dc:format>
        <dc:type
           rdf:resource="http://purl.org/dc/dcmitype/StillImage" />
        <dc:title></dc:title>
      </cc:Work>
    </rdf:RDF>
  </metadata>
  <g
     inkscape:label="Layer 1"
     inkscape:groupmode="layer"
     id="layer1"
     transform="translate(-19.171462,-110.29658)">
    <path
       inkscape:connector-curvature="0"
       style="fill:#fffff4;fill-opacity:1;stroke:none;stroke-width:4.9475565;stroke-miterlimit:4;stroke-dasharray:none;stroke-opacity:1"
       d="M 105,147.05209 A 49.072921,49.072851 0 0 0 55.927062,196.12503 49.072921,49.072851 0 0 0 105,245.19797 49.072921,49.072851 0 0 0 154.07294,196.12503 49.072921,49.072851 0 0 0 105,147.05209 Z m 0,5.47941 A 43.593527,43.593466 0 0 1 148.59352,196.12503 43.593527,43.593466 0 0 1 105,239.71855 43.593527,43.593466 0 0 1 61.406477,196.12503 43.593527,43.593466 0 0 1 105,152.5315 Z"
       id="path3744-9" />
    <path
       style="fill:#808080;stroke:#ffffff;stroke-width:1;stroke-miterlimit:4;stroke-dasharray:none;stroke-opacity:1"
       d="m 61.933168,145.82937 -7.228498,7.22901 34.932236,34.93224 a 17.393899,17.393899 0 0 1 7.230049,-7.22747 z m 58.430032,58.43002 a 17.393899,17.393899 0 0 1 -7.23006,7.22747 l 34.93327,34.93378 7.22902,-7.22901 z"
       id="rect4669-2"
       inkscape:connector-curvature="0" />
    <path
       style="fill:#fffff4;fill-opacity:1;stroke:none;stroke-width:8.64992046;stroke-miterlimit:4;stroke-dasharray:none;stroke-opacity:1"
       d="m 104.99979,110.3297 a 85.795248,85.795127 0 0 0 -85.795278,85.79531 85.795248,85.795127 0 0 0 85.795278,85.79527 85.795248,85.795127 0 0 0 85.79528,-85.79527 85.795248,85.795127 0 0 0 -85.79528,-85.79531 z m 0,9.57979 a 76.215506,76.2154 0 0 1 76.2155,76.21552 76.215506,76.2154 0 0 1 -76.2155,76.2155 76.215506,76.2154 0 0 1 -76.2155,-76.2155 76.215506,76.2154 0 0 1 76.2155,-76.21552 z"
       id="path3744"
       inkscape:connector-curvature="0" />
    <path
       style="fill:#808080;stroke:#ffffff;stroke-width:1;stroke-miterlimit:4;stroke-dasharray:none;stroke-opacity:1"
       d="m 82.58162,110.79658 h 44.83676 l -12.28462,19.51529 H 94.866243 Z"
       id="rect4589"
       inkscape:connector-curvature="0"
       sodipodi:nodetypes="ccccc" />
    <path
       style="fill:#808080;stroke:#ffffff;stroke-width:1;stroke-miterlimit:4;stroke-dasharray:none;stroke-opacity:1"
       d="m 190.32854,173.70663 v 44.8368 l -19.51528,-12.28465 v -20.26752 z"
       id="rect4589-3"
       inkscape:connector-curvature="0"
       sodipodi:nodetypes="ccccc" />
    <path
       style="fill:#808080;stroke:#ffffff;stroke-width:1;stroke-miterlimit:4;stroke-dasharray:none;stroke-opacity:1"
       d="M 127.41838,281.45345 H 82.58162 l 12.28462,-19.51528 h 20.26751 z"
       id="rect4589-6"
       inkscape:connector-curvature="0"
       sodipodi:nodetypes="ccccc" />
    <path
       style="fill:#808080;stroke:#ffffff;stroke-width:1;stroke-miterlimit:4;stroke-dasharray:none;stroke-opacity:1"
       d="m 19.671462,218.54343 v -44.8368 l 19.515271,12.28464 v 20.26754 z"
       id="rect4589-3-7"
       inkscape:connector-curvature="0"
       sodipodi:nodetypes="ccccc" />
    <path
       style="fill:#ffffff;fill-opacity:1;stroke:none;stroke-width:4.20072699;stroke-miterlimit:4;stroke-dasharray:none;stroke-opacity:1"
       d="m 39.186754,191.01369 v 10.22315 h 49.205782 a 17.3939,17.3939 0 0 1 -0.786514,-5.11183 17.3939,17.3939 0 0 1 0.769462,-5.11132 z m 82.420806,0 a 17.3939,17.3939 0 0 1 0.78652,5.11132 17.3939,17.3939 0 0 1 -0.76998,5.11183 h 49.18924 v -10.22315 z"
       id="rect4669"
       inkscape:connector-curvature="0" />
    <path
       style="fill:#ffffff;stroke:none;stroke-width:4.20072699;stroke-miterlimit:4;stroke-dasharray:none;stroke-opacity:1"
       d="m 99.888475,130.31144 v 49.20579 a 17.3939,17.3939 0 0 1 5.111315,-0.786 17.3939,17.3939 0 0 1 5.11183,0.76947 v -49.18926 z m 10.223145,82.42134 a 17.3939,17.3939 0 0 1 -5.11183,0.78599 17.3939,17.3939 0 0 1 -5.111315,-0.76946 v 49.18873 h 10.223145 z"
       id="rect4669-5"
       inkscape:connector-curvature="0" />
    <path
       style="fill:#ffffff;fill-opacity:1;stroke:#808080;stroke-width:1;stroke-miterlimit:4;stroke-dasharray:none;stroke-opacity:1"
       d="m 149.62827,272.45759 31.70441,-31.7044 -22.48595,-5.11283 -14.3313,14.3313 z"
       id="rect4589-3-3-5"
       inkscape:connector-curvature="0"
       sodipodi:nodetypes="ccccc" />
    <path
       style="fill:#808080;stroke:#ffffff;stroke-width:1;stroke-miterlimit:4;stroke-dasharray:none;stroke-opacity:1"
       d="m 148.06641,145.82988 -34.93172,34.93172 a 17.393899,17.393899 0 0 1 7.22747,7.23005 l 34.93327,-34.93327 z m -58.428472,58.42848 -34.933268,34.93327 7.229017,7.22901 34.931717,-34.93223 a 17.393899,17.393899 0 0 1 -7.227466,-7.23005 z"
       id="rect4669-2-7"
       inkscape:connector-curvature="0" />
    <path
       style="fill:#ffffff;fill-opacity:1;stroke:#808080;stroke-width:1;stroke-miterlimit:4;stroke-dasharray:none;stroke-opacity:1"
       d="m 149.62827,119.79242 31.70441,31.70445 -22.48595,5.11283 -14.3313,-14.33133 z"
       id="rect4589-3-3"
       inkscape:connector-curvature="0"
       sodipodi:nodetypes="ccccc" />
    <path
       style="opacity:1;vector-effect:none;fill:#ffffff;fill-opacity:1;stroke:#808080;stroke-width:1;stroke-linecap:butt;stroke-linejoin:miter;stroke-miterlimit:4;stroke-dasharray:none;stroke-dashoffset:0;stroke-opacity:1"
       d="m 60.371708,119.79242 -31.70441,31.70444 22.48595,5.11285 14.3313,-14.33134 z"
       id="rect4589-3-3-5-6-2"
       inkscape:connector-curvature="0"
       sodipodi:nodetypes="ccccc" />
    <path
       style="fill:#ffffff;fill-opacity:1;stroke:#808080;stroke-width:1;stroke-miterlimit:4;stroke-dasharray:none;stroke-opacity:1"
       d="m 60.371708,272.45759 -31.70441,-31.7044 22.48595,-5.11283 14.3313,14.3313 z"
       id="rect4589-3-3-5-6"
       inkscape:connector-curvature="0"
       sodipodi:nodetypes="ccccc" />
    <circle
       style="fill:none;fill-opacity:1;stroke:#ffffff;stroke-width:3.38095236;stroke-miterlimit:4;stroke-dasharray:none;stroke-opacity:1"
       id="path4667"
       cx="105"
       cy="196.12505"
       r="17.3939" />
  </g>
</svg>
