<?xml version="1.0" encoding="UTF-8" standalone="no"?>
<svg
   xmlns:dc="http://purl.org/dc/elements/1.1/"
   xmlns:cc="http://creativecommons.org/ns#"
   xmlns:rdf="http://www.w3.org/1999/02/22-rdf-syntax-ns#"
   xmlns:svg="http://www.w3.org/2000/svg"
   xmlns="http://www.w3.org/2000/svg"
   xmlns:sodipodi="http://sodipodi.sourceforge.net/DTD/sodipodi-0.dtd"
   xmlns:inkscape="http://www.inkscape.org/namespaces/inkscape"
   viewBox="0 0 100 100"
   id="pie"
   version="1.1"
   sodipodi:docname="quarry.svg"
   width="100"
   height="100"
   inkscape:version="0.92.4 5da689c313, 2019-01-14">
  <metadata
     id="metadata13">
    <rdf:RDF>
      <cc:Work
         rdf:about="">
        <dc:format>image/svg+xml</dc:format>
        <dc:type
           rdf:resource="http://purl.org/dc/dcmitype/StillImage" />
        <dc:title></dc:title>
      </cc:Work>
    </rdf:RDF>
  </metadata>
  <defs
     id="defs11" />
  <sodipodi:namedview
     pagecolor="#000000"
     bordercolor="#666666"
     borderopacity="1"
     objecttolerance="10"
     gridtolerance="10"
     guidetolerance="10"
     inkscape:pageopacity="0"
     inkscape:pageshadow="2"
     inkscape:window-width="1920"
     inkscape:window-height="1006"
     id="namedview9"
     showgrid="false"
     inkscape:zoom="5.6568543"
     inkscape:cx="49.131509"
     inkscape:cy="53.542616"
     inkscape:window-x="0"
     inkscape:window-y="0"
     inkscape:window-maximized="1"
     inkscape:current-layer="pie"
     fit-margin-top="0"
     fit-margin-left="0"
     fit-margin-right="0"
     fit-margin-bottom="0" />
  <path
     style="opacity:1;vector-effect:none;fill:#666666;fill-opacity:1;stroke:none;stroke-width:1.01645935;stroke-linecap:butt;stroke-linejoin:miter;stroke-miterlimit:4;stroke-dasharray:none;stroke-dashoffset:0;stroke-opacity:1"
     d="m 30.849609,12.164062 a 43.464573,43.464573 0 0 0 -3.93164,2.185547 L 47.5,50 25.949219,87.328125 a 43.464573,43.464573 0 0 0 3.871093,2.287109 L 51.25,52.5 H 93.398438 A 43.464573,43.464573 0 0 0 93.464844,51.154297 43.464573,43.464573 0 0 0 93.285156,47.5 H 51.25 Z"
     id="path868"
     inkscape:connector-curvature="0" />
  <circle
     style="opacity:1;vector-effect:none;fill:#4d4d4d;fill-opacity:1;stroke:#666666;stroke-width:0.80030489;stroke-linecap:butt;stroke-linejoin:miter;stroke-miterlimit:4;stroke-dasharray:none;stroke-dashoffset:0;stroke-opacity:1"
     id="path872"
     cx="50"
     cy="50"
     r="12.099848" />
  <path
     style="opacity:1;vector-effect:none;fill:#ffffff;fill-opacity:1;stroke:#666666;stroke-width:0.99237275;stroke-linecap:butt;stroke-linejoin:miter;stroke-miterlimit:4;stroke-dasharray:none;stroke-dashoffset:0;stroke-opacity:1"
     d="M 49.999994,0.49618638 A 49.503751,49.503755 0 0 0 0.49618638,49.999991 49.503751,49.503755 0 0 0 49.999994,99.503814 49.503751,49.503755 0 0 0 99.503814,49.999991 49.503751,49.503755 0 0 0 49.999994,0.49618638 Z m 0,6.73618992 A 42.767704,42.767707 0 0 1 92.767633,49.999991 42.767704,42.767707 0 0 1 49.999994,92.767631 42.767704,42.767707 0 0 1 7.2323638,49.999991 42.767704,42.767707 0 0 1 49.999994,7.2323763 Z"
     id="path819"
     inkscape:connector-curvature="0" />
</svg>
